<?xml version="1.0" encoding="utf-8"?>
<!-- Generator: Adobe Illustrator 25.1.0, SVG Export Plug-In . SVG Version: 6.00 Build 0)  -->
<svg version="1.1" id="Capa_1" xmlns="http://www.w3.org/2000/svg" xmlns:xlink="http://www.w3.org/1999/xlink" x="0px" y="0px"
	 viewBox="0 0 512 512" style="enable-background:new 0 0 512 512;" xml:space="preserve">
<style type="text/css">
	.st0{fill:#FFFFFF;}
</style>
<g>
	<g>
		<path class="st0" d="M467,46H165c-24.8,0-45,20.2-45,45v15h-15c-24.8,0-45,20.2-45,45v15H45c-24.9,0-45,20.3-45,45v210
			c0,24.8,20.2,45,45,45h300c24.7,0,45-20.1,45-45v-15h17c24.8,0,45-20.2,45-45v-15h15c24.8,0,45-20.2,45-45V91
			C512,66.2,491.8,46,467,46z M337.4,196L205.7,328.9c-5.9,5.9-15.4,5.9-21.3,0L52.7,196H337.4z M30,414.8v-199l99,100L30,414.8z
			 M51.2,436l98.9-98.9l12.9,13c17.6,17.8,46.3,17.8,63.9,0l12.9-13l98.9,98.9H51.2z M360,414.8l-99-99l99-100V414.8z M422,361
			c0,8.3-6.7,15-15,15h-17V211c0-24.7-20.1-45-45-45H90v-15c0-8.3,6.7-15,15-15h302c8.3,0,15,6.7,15,15V361z M482,301
			c0,8.3-6.7,15-15,15h-15V151c0-24.8-20.2-45-45-45H150V91c0-8.3,6.7-15,15-15h302c8.3,0,15,6.7,15,15V301z"/>
	</g>
</g>
</svg>
