<?xml version="1.0" encoding="utf-8"?>
<!-- Generator: Adobe Illustrator 25.1.0, SVG Export Plug-In . SVG Version: 6.00 Build 0)  -->
<svg version="1.1" id="Capa_1" xmlns="http://www.w3.org/2000/svg" xmlns:xlink="http://www.w3.org/1999/xlink" x="0px" y="0px"
	 viewBox="0 0 442 442" style="enable-background:new 0 0 442 442;" xml:space="preserve">
<style type="text/css">
	.st0{fill:#3F5EFB;}
</style>
<g>
	<path class="st0" d="M105.4,221c0,9.4-7.6,17-17,17h-34c-9.4,0-17-7.6-17-17l0,0c0-9.4,7.6-17,17-17h34
		C97.8,204,105.4,211.6,105.4,221L105.4,221z M105.4,112.2c0-9.4-7.6-17-17-17h-34c-9.4,0-17,7.6-17,17l0,0c0,9.4,7.6,17,17,17h34
		C97.8,129.2,105.4,121.6,105.4,112.2L105.4,112.2z M105.4,329.8c0-9.4-7.6-17-17-17h-34c-9.4,0-17,7.6-17,17l0,0
		c0,9.4,7.6,17,17,17h34C97.8,346.8,105.4,339.2,105.4,329.8L105.4,329.8z M404.6,54.4v333.2c0,30-24.4,54.4-54.4,54.4h-238
		c-30,0-54.4-24.4-54.4-54.4v-27.2h30.6c16.9,0,30.6-13.7,30.6-30.6c0-16.9-13.7-30.6-30.6-30.6H57.8v-47.6h30.6
		c16.9,0,30.6-13.7,30.6-30.6s-13.7-30.6-30.6-30.6H57.8v-47.6h30.6c16.9,0,30.6-13.7,30.6-30.6s-13.7-30.6-30.6-30.6H57.8V54.4
		c0-30,24.4-54.4,54.4-54.4h238C380.2,0,404.6,24.4,404.6,54.4z M188.9,161.3c0,29,23.5,52.5,52.5,52.5c29,0,52.5-23.5,52.5-52.5
		s-23.5-52.5-52.5-52.5C212.4,108.8,188.9,132.3,188.9,161.3z M323,289.5c0-32.2-26.1-58.3-58.3-58.3h-46.6
		c-32.2,0-58.3,26.1-58.3,58.3v23.3H323V289.5z"/>
</g>
</svg>
