<?xml version="1.0" encoding="utf-8"?>
<!-- Generator: Adobe Illustrator 25.1.0, SVG Export Plug-In . SVG Version: 6.00 Build 0)  -->
<svg version="1.1" id="Capa_1" xmlns="http://www.w3.org/2000/svg" xmlns:xlink="http://www.w3.org/1999/xlink" x="0px" y="0px"
	 viewBox="0 0 512 512" style="enable-background:new 0 0 512 512;" xml:space="preserve">
<style type="text/css">
	.st0{fill:#FFFFFF;}
</style>
<path class="st0" d="M511.4,38.2c-1.1-20.3-17.3-36.5-37.6-37.6c-41-2.2-121.3-0.1-198.1,39.7c-39.1,20.2-80.5,54.6-113.6,94.2
	c-0.4,0.5-0.8,1-1.2,1.5l-75,5.8c-12.3,1-23.3,7.4-30.2,17.7L4.6,236.8c-5.2,7.8-6,17.6-2.2,26.2c3.8,8.6,11.6,14.6,20.9,16
	l63.2,9.8c-0.2,1.2-0.4,2.5-0.7,3.7c-2.1,12.6,2.1,25.5,11.2,34.6l88,88c7.5,7.5,17.7,11.7,28.1,11.7c2.1,0,4.3-0.2,6.5-0.5
	c1.2-0.2,2.5-0.4,3.7-0.7l9.8,63.2c1.4,9.3,7.4,17.1,16,20.9c3.6,1.6,7.4,2.4,11.1,2.4c5.3,0,10.5-1.5,15.1-4.6l77.4-51.2
	c10.3-6.8,16.8-17.8,17.7-30.2l5.8-75c0.5-0.4,1-0.8,1.5-1.2c39.6-33,73.9-74.4,94.2-113.6C511.5,159.6,513.6,79.3,511.4,38.2
	L511.4,38.2z M336,431.3l-74,48.9l-9.5-61.6c31.3-9.2,62.2-23.9,91.7-43.7l-3.8,48.8C340.2,426.9,338.6,429.6,336,431.3L336,431.3z
	 M206.1,393.9l-88-88c-2.2-2.2-3.3-5.4-2.8-8.4c2.6-15.6,6.7-30.5,11.7-44.6l132,132c-16.8,6-31.9,9.6-44.5,11.7
	C211.5,397.2,208.4,396.1,206.1,393.9L206.1,393.9z M88.2,171.6l48.8-3.8c-19.7,29.5-34.5,60.4-43.7,91.7L31.8,250l48.9-74
	C82.4,173.4,85.1,171.8,88.2,171.6z M358.3,326.9c-24.2,20.2-47.8,34.8-69.4,45.4L139.7,223.1c13.9-28.3,30.8-51.9,45.4-69.4
	c30.6-36.7,68.6-68.3,104.3-86.8c70.5-36.5,144.7-38.4,182.7-36.3c5,0.3,9,4.3,9.3,9.3c2.1,38,0.1,112.2-36.3,182.7
	C426.6,258.3,395,296.3,358.3,326.9L358.3,326.9z"/>
<path class="st0" d="M350.7,236.2c19.2,0,38.4-7.3,53-21.9c14.2-14.2,22-33,22-53s-7.8-38.9-22-53c-29.2-29.2-76.8-29.2-106.1,0
	c-14.2,14.2-22,33-22,53s7.8,38.9,22,53C312.3,228.9,331.5,236.2,350.7,236.2L350.7,236.2z M318.9,129.5
	c8.8-8.8,20.3-13.2,31.8-13.2c11.5,0,23,4.4,31.8,13.2c8.5,8.5,13.2,19.8,13.2,31.8s-4.7,23.3-13.2,31.8
	c-17.5,17.5-46.1,17.5-63.6,0c-8.5-8.5-13.2-19.8-13.2-31.8S310.4,138,318.9,129.5z"/>
<path class="st0" d="M15.3,421.9c3.8,0,7.7-1.5,10.6-4.4l49-49c5.9-5.9,5.9-15.4,0-21.2c-5.9-5.9-15.4-5.9-21.2,0l-49,49
	c-5.9,5.9-5.9,15.4,0,21.2C7.6,420.5,11.5,421.9,15.3,421.9z"/>
<path class="st0" d="M119.8,392.2c-5.9-5.9-15.4-5.9-21.2,0L4.4,486.4c-5.9,5.9-5.9,15.4,0,21.2c2.9,2.9,6.8,4.4,10.6,4.4
	s7.7-1.5,10.6-4.4l94.2-94.2C125.6,407.6,125.6,398.1,119.8,392.2L119.8,392.2z"/>
<path class="st0" d="M143.4,437.1l-49,49c-5.9,5.9-5.9,15.4,0,21.2c2.9,2.9,6.8,4.4,10.6,4.4s7.7-1.5,10.6-4.4l49-49
	c5.9-5.9,5.9-15.4,0-21.2C158.8,431.3,149.3,431.3,143.4,437.1z"/>
</svg>
